{"accessors" : [{"bufferView" : 0, "byteOffset" : 0, "componentType" : 5123, "count" : 10818, "type" : "SCALAR", "max" : [9028], "min" : [0]}, {"bufferView" : 1, "byteOffset" : 0, "componentType" : 5126, "count" : 9029, "type" : "VEC3", "max" : [2.346362590789795, 0.4996272325515747, 1], "min" : [-2.298093795776367, -0.7531757354736328, -1], "name" : "POSITION"}, {"bufferView" : 1, "byteOffset" : 12, "componentType" : 5126, "count" : 9029, "type" : "VEC3", "max" : [0.9990102052688599, 1.0000044107437134, 1.0000044107437134], "min" : [-0.9998802542686462, -1.0000044107437134, -1.0000044107437134], "name" : "NORMAL"}, {"bufferView" : 1, "byteOffset" : 24, "componentType" : 5126, "count" : 9029, "type" : "VEC2", "max" : [1, 1], "min" : [0, -1.1920928955078125E-07], "name" : "TEXCOORD_0"}, {"bufferView" : 0, "byteOffset" : 21636, "componentType" : 5123, "count" : 204, "type" : "SCALAR", "max" : [169], "min" : [0]}, {"bufferView" : 2, "byteOffset" : 0, "componentType" : 5126, "count" : 170, "type" : "VEC3", "max" : [-1.856501579284668, 0.31653517484664917, 0.9516780972480774], "min" : [-2.141648530960083, 0.02105918526649475, -0.9458819627761841], "name" : "POSITION"}, {"bufferView" : 2, "byteOffset" : 12, "componentType" : 5126, "count" : 170, "type" : "VEC3", "max" : [0.9686883091926575, 0.9686880707740784, 1.0000044107437134], "min" : [-0.9686887264251709, -0.9776139855384827, -1.0000044107437134], "name" : "NORMAL"}, {"bufferView" : 2, "byteOffset" : 24, "componentType" : 5126, "count" : 170, "type" : "VEC2", "max" : [0.8750000596046448, 0.27574366331100464], "min" : [0.8749999403953552, 0.26287180185317993], "name" : "TEXCOORD_0"}, {"bufferView" : 0, "byteOffset" : 22044, "componentType" : 5123, "count" : 606, "type" : "SCALAR", "max" : [504], "min" : [0]}, {"bufferView" : 3, "byteOffset" : 0, "componentType" : 5126, "count" : 505, "type" : "VEC3", "max" : [2.0879390239715576, 0.4996272325515747, 1], "min" : [-2.298093795776367, -0.7156162261962891, -1], "name" : "POSITION"}, {"bufferView" : 3, "byteOffset" : 12, "componentType" : 5126, "count" : 505, "type" : "VEC3", "max" : [0.5850393176078796, 0.9990028142929077, 1.0000044107437134], "min" : [-0.999856173992157, -0.9995332956314087, -1.0000044107437134], "name" : "NORMAL"}, {"bufferView" : 3, "byteOffset" : 24, "componentType" : 5126, "count" : 505, "type" : "VEC2", "max" : [0.8750001192092896, 1], "min" : [0.1249999925494194, 0], "name" : "TEXCOORD_0"}, {"bufferView" : 0, "byteOffset" : 23256, "componentType" : 5123, "count" : 816, "type" : "SCALAR", "max" : [679], "min" : [0]}, {"bufferView" : 4, "byteOffset" : 0, "componentType" : 5126, "count" : 680, "type" : "VEC3", "max" : [2.3414528369903564, -0.20615102350711823, 0.5602100491523743], "min" : [2.1735358238220215, -0.47695374488830566, -0.5688275694847107], "name" : "POSITION"}, {"bufferView" : 4, "byteOffset" : 12, "componentType" : 5126, "count" : 680, "type" : "VEC3", "max" : [0.9708387851715088, 0.9994969964027405, 1.0000042915344238], "min" : [-0.057574156671762466, -0.9900566935539246, -1.0000042915344238], "name" : "NORMAL"}, {"bufferView" : 4, "byteOffset" : 24, "componentType" : 5126, "count" : 680, "type" : "VEC2", "max" : [0.625, 0.375], "min" : [0.4840908944606781, 0.2993733882904053], "name" : "TEXCOORD_0"}, {"bufferView" : 0, "byteOffset" : 24888, "componentType" : 5123, "count" : 516, "type" : "SCALAR", "max" : [431], "min" : [0]}, {"bufferView" : 5, "byteOffset" : 0, "componentType" : 5126, "count" : 432, "type" : "VEC3", "max" : [2.2275302410125732, 0.4202413260936737, 0.9656704068183899], "min" : [-1.2869170904159546, -0.3188062310218811, -0.9655680060386658], "name" : "POSITION"}, {"bufferView" : 5, "byteOffset" : 12, "componentType" : 5126, "count" : 432, "type" : "VEC3", "max" : [0.5427944660186768, 0.9858216643333435, 1.0000044107437134], "min" : [-0.5292821526527405, -0.9814062118530273, -1.0000044107437134], "name" : "NORMAL"}, {"bufferView" : 5, "byteOffset" : 24, "componentType" : 5126, "count" : 432, "type" : "VEC2", "max" : [0.8750001192092896, 0.375], "min" : [0.5359939932823181, 0.04462409019470215], "name" : "TEXCOORD_0"}, {"bufferView" : 0, "byteOffset" : 25920, "componentType" : 5123, "count" : 12, "type" : "SCALAR", "max" : [9], "min" : [0]}, {"bufferView" : 6, "byteOffset" : 0, "componentType" : 5126, "count" : 10, "type" : "VEC3", "max" : [-2.266507387161255, -0.4296320676803589, 0.7353085875511169], "min" : [-2.275482654571533, -0.6225351691246033, -0.7405720949172974], "name" : "POSITION"}, {"bufferView" : 6, "byteOffset" : 12, "componentType" : 5126, "count" : 10, "type" : "VEC3", "max" : [-0.9989237189292908, -0.04647725075483322, -0], "min" : [-0.9989237785339355, -0.04647725075483322, -0], "name" : "NORMAL"}, {"bufferView" : 6, "byteOffset" : 24, "componentType" : 5126, "count" : 10, "type" : "VEC2", "max" : [0.48039180040359497, 0.9742563962936401], "min" : [0.3786992132663727, 0.9515045881271362], "name" : "TEXCOORD_0"}, {"bufferView" : 0, "byteOffset" : 25944, "componentType" : 5123, "count" : 588, "type" : "SCALAR", "max" : [490], "min" : [0]}, {"bufferView" : 7, "byteOffset" : 0, "componentType" : 5126, "count" : 491, "type" : "VEC3", "max" : [0.9202122688293457, 0.4344090223312378, 1], "min" : [-1.2869170904159546, -0.04843452572822571, -1], "name" : "POSITION"}, {"bufferView" : 7, "byteOffset" : 12, "componentType" : 5126, "count" : 491, "type" : "VEC3", "max" : [0.9992280602455139, 0.9994388818740845, 0.9996923804283142], "min" : [-0.9101932644844055, -0.9989923238754272, -0.9996923804283142], "name" : "NORMAL"}, {"bufferView" : 7, "byteOffset" : 24, "componentType" : 5126, "count" : 491, "type" : "VEC2", "max" : [0.8750001192092896, 0.375], "min" : [0.5359939932823181, 0.04424154758453369], "name" : "TEXCOORD_0"}, {"bufferView" : 0, "byteOffset" : 27120, "componentType" : 5123, "count" : 84, "type" : "SCALAR", "max" : [69], "min" : [0]}, {"bufferView" : 8, "byteOffset" : 0, "componentType" : 5126, "count" : 70, "type" : "VEC3", "max" : [2.237786054611206, -0.17841951549053192, 0.8899424076080322], "min" : [2.1302576065063477, -0.5844417810440063, -0.8899424076080322], "name" : "POSITION"}, {"bufferView" : 8, "byteOffset" : 12, "componentType" : 5126, "count" : 70, "type" : "VEC3", "max" : [0.9990102052688599, 0.3091886341571808, 0.6808956265449524], "min" : [0.7292205095291138, 0.04457974433898926, -0.6808959245681763], "name" : "NORMAL"}, {"bufferView" : 8, "byteOffset" : 24, "componentType" : 5126, "count" : 70, "type" : "VEC2", "max" : [0.6229384541511536, 0.2987293601036072], "min" : [0.38010454177856445, 0.26377272605895996], "name" : "TEXCOORD_0"}, {"bufferView" : 0, "byteOffset" : 27288, "componentType" : 5123, "count" : 36, "type" : "SCALAR", "max" : [29], "min" : [0]}, {"bufferView" : 9, "byteOffset" : 0, "componentType" : 5126, "count" : 30, "type" : "VEC3", "max" : [2.139232635498047, -0.4296320676803589, 0.9925188422203064], "min" : [-2.275482654571533, -0.6225351691246033, -0.9925188422203064], "name" : "POSITION"}, {"bufferView" : 9, "byteOffset" : 12, "componentType" : 5126, "count" : 30, "type" : "VEC3", "max" : [0.7265143394470215, 0.13939176499843597, 0.6797346472740173], "min" : [-0.9989237785339355, -0.04647728055715561, -0.6796143054962158], "name" : "NORMAL"}, {"bufferView" : 9, "byteOffset" : 24, "componentType" : 5126, "count" : 30, "type" : "VEC2", "max" : [0.4803917706012726, 0.9852719306945801], "min" : [0.3786992132663727, 0.2509472966194153], "name" : "TEXCOORD_0"}, {"bufferView" : 0, "byteOffset" : 27360, "componentType" : 5123, "count" : 6, "type" : "SCALAR", "max" : [4], "min" : [0]}, {"bufferView" : 10, "byteOffset" : 0, "componentType" : 5126, "count" : 5, "type" : "VEC3", "max" : [0.367155522108078, 0.09805449843406677, 1.102065086364746], "min" : [0.2866744101047516, -0.0010052777361124754, 1.0106558799743652], "name" : "POSITION"}, {"bufferView" : 10, "byteOffset" : 12, "componentType" : 5126, "count" : 5, "type" : "VEC3", "max" : [-0.7513657808303833, 0.0126091493293643, -0.6597719788551331], "min" : [-0.7513657808303833, 0.0126091493293643, -0.6597719788551331], "name" : "NORMAL"}, {"bufferView" : 10, "byteOffset" : 24, "componentType" : 5126, "count" : 5, "type" : "VEC2", "max" : [0.5471655130386353, 0.22089940309524536], "min" : [0.5410997867584229, 0.22089934349060059], "name" : "TEXCOORD_0"}, {"bufferView" : 0, "byteOffset" : 27372, "componentType" : 5123, "count" : 168, "type" : "SCALAR", "max" : [140], "min" : [0]}, {"bufferView" : 11, "byteOffset" : 0, "componentType" : 5126, "count" : 141, "type" : "VEC3", "max" : [0.43492984771728516, 0.10192728042602539, 1.1224411725997925], "min" : [0.27721738815307617, -0.00706963986158371, 1], "name" : "POSITION"}, {"bufferView" : 11, "byteOffset" : 12, "componentType" : 5126, "count" : 141, "type" : "VEC3", "max" : [0.9991687536239624, 0.9974396228790283, 1.0000044107437134], "min" : [-0.9913178086280823, -0.9974396228790283, -0.9997594952583313], "name" : "NORMAL"}, {"bufferView" : 11, "byteOffset" : 24, "componentType" : 5126, "count" : 141, "type" : "VEC2", "max" : [0.5474026203155518, 0.22693872451782227], "min" : [0.5408627390861511, 0.22089934349060059], "name" : "TEXCOORD_0"}, {"bufferView" : 0, "byteOffset" : 27708, "componentType" : 5123, "count" : 4608, "type" : "SCALAR", "max" : [3707], "min" : [0]}, {"bufferView" : 12, "byteOffset" : 0, "componentType" : 5126, "count" : 3708, "type" : "VEC3", "max" : [1.7370591163635254, -0.23940140008926392, 1.0062880516052246], "min" : [-1.765838623046875, -0.9593939781188965, -0.9783568978309631], "name" : "POSITION"}, {"bufferView" : 12, "byteOffset" : 12, "componentType" : 5126, "count" : 3708, "type" : "VEC3", "max" : [0.87721848487854, 0.87721848487854, 0.9949653148651123], "min" : [-0.87721848487854, -0.87721848487854, -0.9949655532836914], "name" : "NORMAL"}, {"bufferView" : 12, "byteOffset" : 24, "componentType" : 5126, "count" : 3708, "type" : "VEC2", "max" : [0, 1], "min" : [0, 1], "name" : "TEXCOORD_0"}, {"bufferView" : 0, "byteOffset" : 36924, "componentType" : 5123, "count" : 7272, "type" : "SCALAR", "max" : [5742], "min" : [0]}, {"bufferView" : 13, "byteOffset" : 0, "componentType" : 5126, "count" : 5743, "type" : "VEC3", "max" : [1.5840284824371338, -0.3924320936203003, 0.9757813215255737], "min" : [-1.6128079891204834, -0.8063632845878601, -0.9478501081466675], "name" : "POSITION"}, {"bufferView" : 13, "byteOffset" : 12, "componentType" : 5126, "count" : 5743, "type" : "VEC3", "max" : [1.0000044107437134, 1.0000044107437134, 0.6857064366340637], "min" : [-1.0000044107437134, -1.0000044107437134, -0.6857171654701233], "name" : "NORMAL"}, {"bufferView" : 13, "byteOffset" : 24, "componentType" : 5126, "count" : 5743, "type" : "VEC2", "max" : [0, 1], "min" : [0, 1], "name" : "TEXCOORD_0"}], "asset" : {"generator" : "Aspose.3D 22.1", "version" : "2.0"}, "buffers" : [{"uri" : "data:application/octet-stream;base64,", "byteLength" : 875012}], "bufferViews" : [{"buffer" : 0, "byteOffset" : 0, "byteLength" : 51468, "target" : 34963}, {"buffer" : 0, "byteOffset" : 51472, "byteLength" : 346176, "byteStride" : 32, "target" : 34962}, {"buffer" : 0, "byteOffset" : 397652, "byteLength" : 6528, "byteStride" : 32, "target" : 34962}, {"buffer" : 0, "byteOffset" : 404184, "byteLength" : 19392, "byteStride" : 32, "target" : 34962}, {"buffer" : 0, "byteOffset" : 423580, "byteLength" : 26112, "byteStride" : 32, "target" : 34962}, {"buffer" : 0, "byteOffset" : 449696, "byteLength" : 16512, "byteStride" : 32, "target" : 34962}, {"buffer" : 0, "byteOffset" : 466212, "byteLength" : 384, "byteStride" : 32, "target" : 34962}, {"buffer" : 0, "byteOffset" : 466600, "byteLength" : 18816, "byteStride" : 32, "target" : 34962}, {"buffer" : 0, "byteOffset" : 485420, "byteLength" : 2688, "byteStride" : 32, "target" : 34962}, {"buffer" : 0, "byteOffset" : 488112, "byteLength" : 1152, "byteStride" : 32, "target" : 34962}, {"buffer" : 0, "byteOffset" : 489268, "byteLength" : 192, "byteStride" : 32, "target" : 34962}, {"buffer" : 0, "byteOffset" : 489464, "byteLength" : 5376, "byteStride" : 32, "target" : 34962}, {"buffer" : 0, "byteOffset" : 494844, "byteLength" : 147456, "byteStride" : 32, "target" : 34962}, {"buffer" : 0, "byteOffset" : 642304, "byteLength" : 232704, "byteStride" : 32, "target" : 34962}], "materials" : [{"name" : "Car base body", "pbrMetallicRoughness" : {"baseColorFactor" : [0.009139430709183216, 0.8000000715255737, 0.0844372808933258, 1], "metallicFactor" : 1, "roughnessFactor" : 0.4000000059604645}, "emissiveFactor" : [0, 0, 0], "alphaMode" : "OPAQUE", "doubleSided" : true}, {"name" : "Car back 1", "pbrMetallicRoughness" : {"baseColorFactor" : [0.8970907330513, 0, 0, 1], "metallicFactor" : 1, "roughnessFactor" : 0.30000001192092896}, "emissiveFactor" : [0, 0, 0], "alphaMode" : "OPAQUE", "doubleSided" : true}, {"name" : "Red style", "pbrMetallicRoughness" : {"baseColorFactor" : [0.8000000715255737, 0.002799489302560687, 0.003733033314347267, 1], "metallicFactor" : 0, "roughnessFactor" : 0.5}, "emissiveFactor" : [0, 0, 0], "alphaMode" : "OPAQUE", "doubleSided" : true}, {"name" : "Bumber", "pbrMetallicRoughness" : {"baseColorFactor" : [0.6266605257987976, 0.6266605257987976, 0.6266605257987976, 1], "metallicFactor" : 1, "roughnessFactor" : 0.20000000298023224}, "emissiveFactor" : [0, 0, 0], "alphaMode" : "OPAQUE", "doubleSided" : true}, {"name" : "Car glass", "pbrMetallicRoughness" : {"baseColorFactor" : [1, 1, 1, 1], "metallicFactor" : 1, "roughnessFactor" : 1}, "emissiveFactor" : [0, 0, 0], "alphaMode" : "OPAQUE", "doubleSided" : true}, {"name" : "Back light", "pbrMetallicRoughness" : {"baseColorFactor" : [1, 1, 1, 1], "metallicFactor" : 1, "roughnessFactor" : 1}, "emissiveFactor" : [1, 0, 0.05095017608255148], "alphaMode" : "OPAQUE", "doubleSided" : true}, {"name" : "Thick green", "pbrMetallicRoughness" : {"baseColorFactor" : [0.008254640735685825, 0.16264036297798157, 0.01498646754771471, 1], "metallicFactor" : 0, "roughnessFactor" : 0.5}, "emissiveFactor" : [0, 0, 0], "alphaMode" : "OPAQUE", "doubleSided" : true}, {"name" : "Front lights ", "pbrMetallicRoughness" : {"baseColorFactor" : [1, 1, 1, 1], "metallicFactor" : 1, "roughnessFactor" : 1}, "emissiveFactor" : [1, 1, 1], "alphaMode" : "OPAQUE", "doubleSided" : true}, {"name" : "Indicators", "pbrMetallicRoughness" : {"baseColorFactor" : [1, 1, 1, 1], "metallicFactor" : 1, "roughnessFactor" : 1}, "emissiveFactor" : [1, 0.40648889541625977, 0.040848635137081146], "alphaMode" : "OPAQUE", "doubleSided" : true}, {"name" : "Mirror", "pbrMetallicRoughness" : {"baseColorFactor" : [1, 1, 1, 1], "metallicFactor" : 1, "roughnessFactor" : 1}, "emissiveFactor" : [0, 0, 0], "alphaMode" : "OPAQUE", "doubleSided" : true}, {"name" : "Mirror bearing", "pbrMetallicRoughness" : {"baseColorFactor" : [0, 0, 0, 1], "metallicFactor" : 0.20000000298023224, "roughnessFactor" : 0.30000001192092896}, "emissiveFactor" : [0, 0, 0], "alphaMode" : "OPAQUE", "doubleSided" : true}, {"name" : "Tyere", "pbrMetallicRoughness" : {"baseColorFactor" : [0, 0, 0, 1], "metallicFactor" : 0.10000000149011612, "roughnessFactor" : 1}, "emissiveFactor" : [0, 0, 0], "alphaMode" : "OPAQUE", "doubleSided" : true}, {"name" : "Tyere silvar color", "pbrMetallicRoughness" : {"baseColorFactor" : [0.8549770712852478, 0.8549770712852478, 0.8549770712852478, 1], "metallicFactor" : 1, "roughnessFactor" : 0.21139241755008698}, "emissiveFactor" : [0, 0, 0], "alphaMode" : "OPAQUE", "doubleSided" : true}], "meshes" : [{"primitives" : [{"attributes" : {"POSITION" : 1, "NORMAL" : 2, "TEXCOORD_0" : 3}, "indices" : 0, "material" : 0, "mode" : 4}, {"attributes" : {"POSITION" : 5, "NORMAL" : 6, "TEXCOORD_0" : 7}, "indices" : 4, "material" : 1, "mode" : 4}, {"attributes" : {"POSITION" : 9, "NORMAL" : 10, "TEXCOORD_0" : 11}, "indices" : 8, "material" : 2, "mode" : 4}, {"attributes" : {"POSITION" : 13, "NORMAL" : 14, "TEXCOORD_0" : 15}, "indices" : 12, "material" : 3, "mode" : 4}, {"attributes" : {"POSITION" : 17, "NORMAL" : 18, "TEXCOORD_0" : 19}, "indices" : 16, "material" : 4, "mode" : 4}, {"attributes" : {"POSITION" : 21, "NORMAL" : 22, "TEXCOORD_0" : 23}, "indices" : 20, "material" : 5, "mode" : 4}, {"attributes" : {"POSITION" : 25, "NORMAL" : 26, "TEXCOORD_0" : 27}, "indices" : 24, "material" : 6, "mode" : 4}, {"attributes" : {"POSITION" : 29, "NORMAL" : 30, "TEXCOORD_0" : 31}, "indices" : 28, "material" : 7, "mode" : 4}, {"attributes" : {"POSITION" : 33, "NORMAL" : 34, "TEXCOORD_0" : 35}, "indices" : 32, "material" : 8, "mode" : 4}, {"attributes" : {"POSITION" : 37, "NORMAL" : 38, "TEXCOORD_0" : 39}, "indices" : 36, "material" : 9, "mode" : 4}, {"attributes" : {"POSITION" : 41, "NORMAL" : 42, "TEXCOORD_0" : 43}, "indices" : 40, "material" : 10, "mode" : 4}, {"attributes" : {"POSITION" : 45, "NORMAL" : 46, "TEXCOORD_0" : 47}, "indices" : 44, "material" : 11, "mode" : 4}, {"attributes" : {"POSITION" : 49, "NORMAL" : 50, "TEXCOORD_0" : 51}, "indices" : 48, "material" : 12, "mode" : 4}]}], "nodes" : [{"matrix" : [1, 0, 0, 0, 0, 1, 0, 0, 0, 0, 1, 0, 0, 1, 0, 1], "mesh" : 0, "name" : "Cube"}], "scene" : 0, "scenes" : [{"nodes" : [0]}]}