{"accessors" : [{"bufferView" : 0, "byteOffset" : 0, "componentType" : 5123, "count" : 5274, "type" : "SCALAR", "max" : [4383], "min" : [0]}, {"bufferView" : 1, "byteOffset" : 0, "componentType" : 5126, "count" : 4384, "type" : "VEC3", "max" : [1.0832628011703491, 0.6862010955810547, 2.5098373889923096], "min" : [-1.0832628011703491, -0.6484059691429138, -2.85105562210083], "name" : "POSITION"}, {"bufferView" : 1, "byteOffset" : 12, "componentType" : 5126, "count" : 4384, "type" : "VEC3", "max" : [1.0000044107437134, 1.0000044107437134, 1.0000044107437134], "min" : [-1.0000044107437134, -1.0000044107437134, -1.0000044107437134], "name" : "NORMAL"}, {"bufferView" : 1, "byteOffset" : 24, "componentType" : 5126, "count" : 4384, "type" : "VEC2", "max" : [0.9027738571166992, 0.98828125], "min" : [0.125, 0.125], "name" : "TEXCOORD_0"}, {"bufferView" : 0, "byteOffset" : 10548, "componentType" : 5123, "count" : 7326, "type" : "SCALAR", "max" : [6098], "min" : [0]}, {"bufferView" : 2, "byteOffset" : 0, "componentType" : 5126, "count" : 6099, "type" : "VEC3", "max" : [1.1234544515609741, 0.7188975214958191, 2.4897077083587646], "min" : [-1.1234544515609741, -0.9014111161231995, -3.1079635620117188], "name" : "POSITION"}, {"bufferView" : 2, "byteOffset" : 12, "componentType" : 5126, "count" : 6099, "type" : "VEC3", "max" : [1.0000044107437134, 1.0000044107437134, 0.9967097043991089], "min" : [-0.9991138577461243, -1.0000044107437134, -1.0000044107437134], "name" : "NORMAL"}, {"bufferView" : 2, "byteOffset" : 24, "componentType" : 5126, "count" : 6099, "type" : "VEC2", "max" : [1, 0.9900000095367432], "min" : [-1.862645149230957E-07, 0], "name" : "TEXCOORD_0"}, {"bufferView" : 0, "byteOffset" : 25200, "componentType" : 5123, "count" : 13848, "type" : "SCALAR", "max" : [11528], "min" : [0]}, {"bufferView" : 3, "byteOffset" : 0, "componentType" : 5126, "count" : 11529, "type" : "VEC3", "max" : [1.1014137268066406, 1.1257646083831787, 2.498410224914551], "min" : [-1.1014137268066406, -0.6889039874076843, -3.2007083892822266], "name" : "POSITION"}, {"bufferView" : 3, "byteOffset" : 12, "componentType" : 5126, "count" : 11529, "type" : "VEC3", "max" : [1.0000044107437134, 1.0000044107437134, 1.0000044107437134], "min" : [-1.0000044107437134, -1.0000044107437134, -1.0000044107437134], "name" : "NORMAL"}, {"bufferView" : 3, "byteOffset" : 24, "componentType" : 5126, "count" : 11529, "type" : "VEC2", "max" : [1, 1], "min" : [-1.862645149230957E-07, 0], "name" : "TEXCOORD_0"}, {"bufferView" : 0, "byteOffset" : 52896, "componentType" : 5123, "count" : 96, "type" : "SCALAR", "max" : [79], "min" : [0]}, {"bufferView" : 4, "byteOffset" : 0, "componentType" : 5126, "count" : 80, "type" : "VEC3", "max" : [0.7786230444908142, 1.0930291414260864, -0.00915970467031002], "min" : [-0.7786230444908142, 0.5952138900756836, -0.16245612502098083], "name" : "POSITION"}, {"bufferView" : 4, "byteOffset" : 12, "componentType" : 5126, "count" : 80, "type" : "VEC3", "max" : [0.3355802595615387, 0.3083952069282532, 0.9539223313331604], "min" : [-0.3355801999568939, -0.3120698034763336, -0.9548587799072266], "name" : "NORMAL"}, {"bufferView" : 4, "byteOffset" : 24, "componentType" : 5126, "count" : 80, "type" : "VEC2", "max" : [0.75, 0.3789317011833191], "min" : [0.6180669069290161, 0.3693423271179199], "name" : "TEXCOORD_0"}, {"bufferView" : 0, "byteOffset" : 53088, "componentType" : 5123, "count" : 2523, "type" : "SCALAR", "max" : [2123], "min" : [0]}, {"bufferView" : 5, "byteOffset" : 0, "componentType" : 5126, "count" : 2124, "type" : "VEC3", "max" : [0.8581883311271667, 0.6180846691131592, 1.9593549966812134], "min" : [-0.8581883311271667, -0.22946129739284515, -0.5100064873695374], "name" : "POSITION"}, {"bufferView" : 5, "byteOffset" : 12, "componentType" : 5126, "count" : 2124, "type" : "VEC3", "max" : [0.9993759989738464, 1.0000044107437134, 1.0000044107437134], "min" : [-0.9998412132263184, -1.0000044107437134, -1.0000044107437134], "name" : "NORMAL"}, {"bufferView" : 5, "byteOffset" : 24, "componentType" : 5126, "count" : 2124, "type" : "VEC2", "max" : [0.75, 0.3750000596046448], "min" : [0.6249999403953552, 0.25], "name" : "TEXCOORD_0"}, {"bufferView" : 0, "byteOffset" : 58136, "componentType" : 5123, "count" : 744, "type" : "SCALAR", "max" : [621], "min" : [0]}, {"bufferView" : 6, "byteOffset" : 0, "componentType" : 5126, "count" : 622, "type" : "VEC3", "max" : [0.489698201417923, 0.3680730164051056, -2.7031922340393066], "min" : [-0.489698201417923, 0.3037344813346863, -2.7538890838623047], "name" : "POSITION"}, {"bufferView" : 6, "byteOffset" : 12, "componentType" : 5126, "count" : 622, "type" : "VEC3", "max" : [1.0000044107437134, 0.9855111241340637, 1.5089531189005356E-06], "min" : [-1.0000044107437134, -0.9855111241340637, -1.0000044107437134], "name" : "NORMAL"}, {"bufferView" : 6, "byteOffset" : 24, "componentType" : 5126, "count" : 622, "type" : "VEC2", "max" : [0.9713221192359924, 0.974375307559967], "min" : [0.5286779999732971, 0.5256246328353882], "name" : "TEXCOORD_0"}, {"bufferView" : 0, "byteOffset" : 59624, "componentType" : 5123, "count" : 1737, "type" : "SCALAR", "max" : [1457], "min" : [0]}, {"bufferView" : 7, "byteOffset" : 0, "componentType" : 5126, "count" : 1458, "type" : "VEC3", "max" : [0.7822698950767517, 0.6046633720397949, 0.7590142488479614], "min" : [-0.7814754247665405, -0.22946129739284515, -0.03507978469133377], "name" : "POSITION"}, {"bufferView" : 7, "byteOffset" : 12, "componentType" : 5126, "count" : 1458, "type" : "VEC3", "max" : [1.0000044107437134, 0.9989584684371948, 1.0000044107437134], "min" : [-1.0000044107437134, -0.9660556316375732, -1.0000044107437134], "name" : "NORMAL"}, {"bufferView" : 7, "byteOffset" : 24, "componentType" : 5126, "count" : 1458, "type" : "VEC2", "max" : [0.6875098347663879, 0.3626425862312317], "min" : [0.6875095963478088, 0.3344762325286865], "name" : "TEXCOORD_0"}], "asset" : {"generator" : "Aspose.3D 22.1", "version" : "2.0"}, "buffers" : [{"uri" : "data:application/octet-stream;base64,", "byteLength" : 1072668}], "bufferViews" : [{"buffer" : 0, "byteOffset" : 0, "byteLength" : 63100, "target" : 34963}, {"buffer" : 0, "byteOffset" : 63104, "byteLength" : 168768, "byteStride" : 32, "target" : 34962}, {"buffer" : 0, "byteOffset" : 231876, "byteLength" : 234432, "byteStride" : 32, "target" : 34962}, {"buffer" : 0, "byteOffset" : 466312, "byteLength" : 443136, "byteStride" : 32, "target" : 34962}, {"buffer" : 0, "byteOffset" : 909452, "byteLength" : 3072, "byteStride" : 32, "target" : 34962}, {"buffer" : 0, "byteOffset" : 912528, "byteLength" : 80736, "byteStride" : 32, "target" : 34962}, {"buffer" : 0, "byteOffset" : 993268, "byteLength" : 23808, "byteStride" : 32, "target" : 34962}, {"buffer" : 0, "byteOffset" : 1017080, "byteLength" : 55584, "byteStride" : 32, "target" : 34962}], "materials" : [{"name" : "red", "pbrMetallicRoughness" : {"baseColorFactor" : [0.3031978905200958, 0.029121078550815582, 0.02498619630932808, 1], "metallicFactor" : 0, "roughnessFactor" : 0.4000000059604645}, "emissiveFactor" : [0, 0, 0], "alphaMode" : "OPAQUE", "doubleSided" : true}, {"name" : "dark", "pbrMetallicRoughness" : {"baseColorFactor" : [0, 0, 0, 1], "metallicFactor" : 0, "roughnessFactor" : 0.5}, "emissiveFactor" : [0, 0, 0], "alphaMode" : "OPAQUE", "doubleSided" : true}, {"name" : "gray", "pbrMetallicRoughness" : {"baseColorFactor" : [0.30319738388061523, 0.30319738388061523, 0.30319738388061523, 1], "metallicFactor" : 0, "roughnessFactor" : 0.5}, "emissiveFactor" : [0, 0, 0], "alphaMode" : "OPAQUE", "doubleSided" : true}, {"name" : "glass", "pbrMetallicRoughness" : {"baseColorFactor" : [0.09199411422014236, 0.29305386543273926, 0.4109381437301636, 1], "metallicFactor" : 0, "roughnessFactor" : 0.5}, "emissiveFactor" : [0, 0, 0], "alphaMode" : "OPAQUE", "doubleSided" : true}, {"name" : "interior ", "pbrMetallicRoughness" : {"baseColorFactor" : [0.4868963658809662, 0.33180880546569824, 0.149130716919899, 1], "metallicFactor" : 0, "roughnessFactor" : 0.5}, "emissiveFactor" : [0, 0, 0], "alphaMode" : "OPAQUE", "doubleSided" : true}, {"name" : "yellow", "pbrMetallicRoughness" : {"baseColorFactor" : [0.4479783773422241, 0.4138648211956024, 0.04005647450685501, 1], "metallicFactor" : 0, "roughnessFactor" : 0.5}, "emissiveFactor" : [0, 0, 0], "alphaMode" : "OPAQUE", "doubleSided" : true}, {"name" : "interior2", "pbrMetallicRoughness" : {"baseColorFactor" : [0.4019683003425598, 0.2598680555820465, 0.10381906479597092, 1], "metallicFactor" : 0, "roughnessFactor" : 0.5}, "emissiveFactor" : [0, 0, 0], "alphaMode" : "OPAQUE", "doubleSided" : true}], "meshes" : [{"primitives" : [{"attributes" : {"POSITION" : 1, "NORMAL" : 2, "TEXCOORD_0" : 3}, "indices" : 0, "material" : 0, "mode" : 4}, {"attributes" : {"POSITION" : 5, "NORMAL" : 6, "TEXCOORD_0" : 7}, "indices" : 4, "material" : 1, "mode" : 4}, {"attributes" : {"POSITION" : 9, "NORMAL" : 10, "TEXCOORD_0" : 11}, "indices" : 8, "material" : 2, "mode" : 4}, {"attributes" : {"POSITION" : 13, "NORMAL" : 14, "TEXCOORD_0" : 15}, "indices" : 12, "material" : 3, "mode" : 4}, {"attributes" : {"POSITION" : 17, "NORMAL" : 18, "TEXCOORD_0" : 19}, "indices" : 16, "material" : 4, "mode" : 4}, {"attributes" : {"POSITION" : 21, "NORMAL" : 22, "TEXCOORD_0" : 23}, "indices" : 20, "material" : 5, "mode" : 4}, {"attributes" : {"POSITION" : 25, "NORMAL" : 26, "TEXCOORD_0" : 27}, "indices" : 24, "material" : 6, "mode" : 4}]}], "nodes" : [{"matrix" : [0.9762130975723267, 0, 0, 0, 0, 1, 0, 0, 0, 0, 1, 0, 0, 0.8924047350883484, 0, 1], "mesh" : 0, "name" : "HRG Sports car 1948"}], "scene" : 0, "scenes" : [{"nodes" : [0]}]}