{"accessors" : [{"bufferView" : 0, "byteOffset" : 0, "componentType" : 5123, "count" : 1200, "type" : "SCALAR", "max" : [1015], "min" : [0]}, {"bufferView" : 1, "byteOffset" : 0, "componentType" : 5126, "count" : 1016, "type" : "VEC3", "max" : [0.9499650001525879, 0.7026339769363403, -0.7480909824371338], "min" : [0.6977540254592896, -0.002205000026151538, -1.452929973602295], "name" : "POSITION"}, {"bufferView" : 1, "byteOffset" : 12, "componentType" : 5126, "count" : 1016, "type" : "VEC2", "max" : [0.9952629804611206, -0.004738000221550465], "min" : [0.004739999771118164, -0.992002010345459], "name" : "TEXCOORD_0"}, {"bufferView" : 1, "byteOffset" : 20, "componentType" : 5126, "count" : 1016, "type" : "VEC3", "max" : [1.0000044107437134, 1.0000044107437134, 1.0000044107437134], "min" : [-0.9998847842216492, -1.0000044107437134, -1.0000044107437134], "name" : "NORMAL"}, {"bufferView" : 0, "byteOffset" : 2400, "componentType" : 5123, "count" : 1200, "type" : "SCALAR", "max" : [1015], "min" : [0]}, {"bufferView" : 2, "byteOffset" : 0, "componentType" : 5126, "count" : 1016, "type" : "VEC3", "max" : [-0.6977540254592896, 0.7026339769363403, -0.7480909824371338], "min" : [-0.9499650001525879, -0.002205000026151538, -1.452929973602295], "name" : "POSITION"}, {"bufferView" : 2, "byteOffset" : 12, "componentType" : 5126, "count" : 1016, "type" : "VEC2", "max" : [0.9937580227851868, -0.004738000221550465], "min" : [0.004741000011563301, -0.9230999946594238], "name" : "TEXCOORD_0"}, {"bufferView" : 2, "byteOffset" : 20, "componentType" : 5126, "count" : 1016, "type" : "VEC3", "max" : [0.9998847842216492, 1.0000044107437134, 1.0000044107437134], "min" : [-1.0000044107437134, -1.0000044107437134, -1.0000044107437134], "name" : "NORMAL"}, {"bufferView" : 0, "byteOffset" : 4800, "componentType" : 5123, "count" : 1200, "type" : "SCALAR", "max" : [1015], "min" : [0]}, {"bufferView" : 3, "byteOffset" : 0, "componentType" : 5126, "count" : 1016, "type" : "VEC3", "max" : [0.9193440079689026, 0.6251069903373718, 1.6499220132827759], "min" : [0.7107620239257812, -0.0026020000223070383, 1.0222129821777344], "name" : "POSITION"}, {"bufferView" : 3, "byteOffset" : 12, "componentType" : 5126, "count" : 1016, "type" : "VEC2", "max" : [0.9913139939308167, -0.004741999786347151], "min" : [0.1563500016927719, -0.973347008228302], "name" : "TEXCOORD_0"}, {"bufferView" : 3, "byteOffset" : 20, "componentType" : 5126, "count" : 1016, "type" : "VEC3", "max" : [1.0000044107437134, 1.0000044107437134, 1.0000044107437134], "min" : [-0.9998467564582825, -1.0000044107437134, -1.0000044107437134], "name" : "NORMAL"}, {"bufferView" : 0, "byteOffset" : 7200, "componentType" : 5123, "count" : 1200, "type" : "SCALAR", "max" : [1015], "min" : [0]}, {"bufferView" : 4, "byteOffset" : 0, "componentType" : 5126, "count" : 1016, "type" : "VEC3", "max" : [-0.7107620239257812, 0.6251069903373718, 1.6499220132827759], "min" : [-0.9193440079689026, -0.0026020000223070383, 1.0222129821777344], "name" : "POSITION"}, {"bufferView" : 4, "byteOffset" : 12, "componentType" : 5126, "count" : 1016, "type" : "VEC2", "max" : [0.9747269749641418, -0.004736999981105328], "min" : [0.07235900312662125, -0.9638680219650269], "name" : "TEXCOORD_0"}, {"bufferView" : 4, "byteOffset" : 20, "componentType" : 5126, "count" : 1016, "type" : "VEC3", "max" : [0.9998467564582825, 1.0000044107437134, 1.0000044107437134], "min" : [-1.0000044107437134, -1.0000044107437134, -1.0000044107437134], "name" : "NORMAL"}, {"bufferView" : 0, "byteOffset" : 9600, "componentType" : 5123, "count" : 9690, "type" : "SCALAR", "max" : [8133], "min" : [0]}, {"bufferView" : 5, "byteOffset" : 0, "componentType" : 5126, "count" : 8134, "type" : "VEC3", "max" : [0.9666280150413513, 1.3176130056381226, 2.2047510147094727], "min" : [-0.9666280150413513, 0.1467140018939972, -1.8751239776611328], "name" : "POSITION"}, {"bufferView" : 5, "byteOffset" : 12, "componentType" : 5126, "count" : 8134, "type" : "VEC2", "max" : [0.9981729984283447, -0.001782999956049025], "min" : [0.001782999956049025, -0.982092022895813], "name" : "TEXCOORD_0"}, {"bufferView" : 5, "byteOffset" : 20, "componentType" : 5126, "count" : 8134, "type" : "VEC3", "max" : [1.0000044107437134, 1.0000044107437134, 1.0000044107437134], "min" : [-1.0000044107437134, -1.0000044107437134, -1.0000044107437134], "name" : "NORMAL"}, {"bufferView" : 0, "byteOffset" : 28980, "componentType" : 5123, "count" : 636, "type" : "SCALAR", "max" : [519], "min" : [0]}, {"bufferView" : 6, "byteOffset" : 0, "componentType" : 5126, "count" : 520, "type" : "VEC3", "max" : [0.8748540282249451, 1.269845962524414, 1.99680495262146], "min" : [-0.8748540282249451, 0.6310759782791138, -1.7063449621200562], "name" : "POSITION"}, {"bufferView" : 6, "byteOffset" : 12, "componentType" : 5126, "count" : 520, "type" : "VEC2", "max" : [0.9855560064315796, -0.0052189999260008335], "min" : [0.005518000107258558, -0.9944800138473511], "name" : "TEXCOORD_0"}, {"bufferView" : 6, "byteOffset" : 20, "componentType" : 5126, "count" : 520, "type" : "VEC3", "max" : [0.9594159722328186, 0.9917037487030029, 0.7710875868797302], "min" : [-0.9594159722328186, -0.9858423471450806, -0.9943901300430298], "name" : "NORMAL"}], "asset" : {"generator" : "Aspose.3D 22.1", "version" : "2.0"}, "buffers" : [{"uri" : "data:application/octet-stream;base64,", "byteLength" : 514312}], "bufferViews" : [{"buffer" : 0, "byteOffset" : 0, "byteLength" : 30252, "target" : 34963}, {"buffer" : 0, "byteOffset" : 30256, "byteLength" : 38400, "byteStride" : 32, "target" : 34962}, {"buffer" : 0, "byteOffset" : 68660, "byteLength" : 38400, "byteStride" : 32, "target" : 34962}, {"buffer" : 0, "byteOffset" : 107064, "byteLength" : 38400, "byteStride" : 32, "target" : 34962}, {"buffer" : 0, "byteOffset" : 145468, "byteLength" : 38400, "byteStride" : 32, "target" : 34962}, {"buffer" : 0, "byteOffset" : 183872, "byteLength" : 310080, "byteStride" : 32, "target" : 34962}, {"buffer" : 0, "byteOffset" : 493956, "byteLength" : 20352, "byteStride" : 32, "target" : 34962}], "meshes" : [{"primitives" : [{"attributes" : {"POSITION" : 1, "TEXCOORD_0" : 2, "NORMAL" : 3}, "indices" : 0, "mode" : 4}], "name" : ""}, {"primitives" : [{"attributes" : {"POSITION" : 5, "TEXCOORD_0" : 6, "NORMAL" : 7}, "indices" : 4, "mode" : 4}], "name" : ""}, {"primitives" : [{"attributes" : {"POSITION" : 9, "TEXCOORD_0" : 10, "NORMAL" : 11}, "indices" : 8, "mode" : 4}], "name" : ""}, {"primitives" : [{"attributes" : {"POSITION" : 13, "TEXCOORD_0" : 14, "NORMAL" : 15}, "indices" : 12, "mode" : 4}], "name" : ""}, {"primitives" : [{"attributes" : {"POSITION" : 17, "TEXCOORD_0" : 18, "NORMAL" : 19}, "indices" : 16, "mode" : 4}], "name" : ""}, {"primitives" : [{"attributes" : {"POSITION" : 21, "TEXCOORD_0" : 22, "NORMAL" : 23}, "indices" : 20, "mode" : 4}], "name" : ""}], "nodes" : [{"mesh" : 0, "name" : "WheelRL_Circle.004"}, {"mesh" : 1, "name" : "WheelRR_Circle.002"}, {"mesh" : 2, "name" : "WheelFL_Circle.001"}, {"mesh" : 3, "name" : "WheelFR_Circle"}, {"mesh" : 4, "name" : "Body_BodyMesh"}, {"mesh" : 5, "name" : "Glass_Plane.006"}], "scene" : 0, "scenes" : [{"nodes" : [0, 1, 2, 3, 4, 5]}]}